# xmcd
#
# Track frame offsets:
#	150
#	30308
#	63211
#	86345
#	103035
#	122112
#	154204
#	186130
#	214322
#	241458
#	261084
#
# Disc length: 3804 seconds
#
# Revision: 0
# Processed by: cddbd v1.5.2PL0 Copyright (c) Steve Scherf et al.
# Submitted via: audiograbber 1.83.01
#
DISCID=900eda0b
DTITLE=Mohsin HAMID (Jörg Pohl) - So wirst du stinkreich im boomenden Asien (4v
DTITLE=4)
DYEAR=2013
DGENRE=Hörbuch - Humor
TTITLE0=38
TTITLE1=39
TTITLE2=40
TTITLE3=41
TTITLE4=42
TTITLE5=43
TTITLE6=44
TTITLE7=45
TTITLE8=46
TTITLE9=47
TTITLE10=48
EXTD=
EXTT0=
EXTT1=
EXTT2=
EXTT3=
EXTT4=
EXTT5=
EXTT6=
EXTT7=
EXTT8=
EXTT9=
EXTT10=
PLAYORDER=
